# xmcd
# 
# Track frame offsets:
#     150
#     12699
#     25744
#     36153
#     51623
#     75437
#     89761
#     102065
#     112673
#     139179
#     151093
#     162696
#     180385
#     191624
#     206131
#     234543
#     248631
#     281041
#     294710
#     312643
# 
# Disc length: 4325
# 
# Revision: 0
# Processed by: cddbd v1.5.2PL0 Copyright (c) Steve Scherf et al.
# Submitted via: BonkEnc v1.0beta3
# 
DISCID=1e10e314
DTITLE=Buddy Guy - The World Of Blues
DYEAR=1900
DGENRE=Blues
TTITLE0=I Suffer With The Blues
TTITLE1=Let Me Love You Baby
TTITLE2=First Time I Met The Blues
TTITLE3=Leave My Girl Alone
TTITLE4=Hoochie Coochie Man
TTITLE5=Broken Hearted Blues
TTITLE6=Mother-In-Law-Blues
TTITLE7=I Got My Eyes On You
TTITLE8=Five Long Years
TTITLE9=Ten Years Ago
TTITLE10=My Mother
TTITLE11=When My Left Eye Jumps
TTITLE12=No Lie
TTITLE13=I Cry And Sing The Blues
TTITLE14=I Found A True Love
TTITLE15=I Got A Strange Feeling
TTITLE16=Stone Crazy
TTITLE17=My Time After Awhile
TTITLE18=Worried Mind
TTITLE19=My Love Is Real
EXTD=
EXTT0=
EXTT1=
EXTT2=
EXTT3=
EXTT4=
EXTT5=
EXTT6=
EXTT7=
EXTT8=
EXTT9=
EXTT10=
EXTT11=
EXTT12=
EXTT13=
EXTT14=
EXTT15=
EXTT16=
EXTT17=
EXTT18=
EXTT19=
PLAYORDER=
